<?xml version="1.0" encoding="UTF-8" standalone="no"?>
<!-- Generator: Adobe Illustrator 13.0.0, SVG Export Plug-In . SVG Version: 6.00 Build 14948)  -->

<svg
   xmlns:dc="http://purl.org/dc/elements/1.1/"
   xmlns:cc="http://creativecommons.org/ns#"
   xmlns:rdf="http://www.w3.org/1999/02/22-rdf-syntax-ns#"
   xmlns:svg="http://www.w3.org/2000/svg"
   xmlns="http://www.w3.org/2000/svg"
   xmlns:sodipodi="http://sodipodi.sourceforge.net/DTD/sodipodi-0.dtd"
   xmlns:inkscape="http://www.inkscape.org/namespaces/inkscape"
   version="1.1"
   id="Layer_1"
   x="0px"
   y="0px"
   width="1000"
   height="755.58502"
   viewBox="0 0 1000 755.58502"
   enable-background="new 0 0 220 162"
   xml:space="preserve"
   inkscape:version="0.92.2 (5c3e80d, 2017-08-06)"
   sodipodi:docname="Dreamcast_logo.svg"><metadata
     id="metadata29"><rdf:RDF><cc:Work
         rdf:about=""><dc:format>image/svg+xml</dc:format><dc:type
           rdf:resource="http://purl.org/dc/dcmitype/StillImage" /><dc:title></dc:title></cc:Work></rdf:RDF></metadata><defs
     id="defs27" /><sodipodi:namedview
     pagecolor="#ffffff"
     bordercolor="#666666"
     borderopacity="1"
     objecttolerance="10"
     gridtolerance="10"
     guidetolerance="10"
     inkscape:pageopacity="0"
     inkscape:pageshadow="2"
     inkscape:window-width="1366"
     inkscape:window-height="705"
     id="namedview25"
     showgrid="false"
     inkscape:zoom="0.67272725"
     inkscape:cx="547.51636"
     inkscape:cy="343.38082"
     inkscape:window-x="-8"
     inkscape:window-y="-8"
     inkscape:window-maximized="1"
     inkscape:current-layer="Layer_1" /><path
     d="m 4.7966167,602.60734 c 0,-5.58716 -1.0621427,-12.82331 -3.5307755,-15.86424 16.1649378,0 51.0895448,0.1067 66.0613908,0.1067 34.444458,0 86.406998,19.11857 86.406998,83.56492 0,47.83522 -36.68029,83.47277 -86.406998,83.47277 -10.907574,0 -52.554235,-0.1261 -67.327232,-0.1261 3.0312289,-5.59201 4.7966167,-13.17736 4.7966167,-19.16706 l 0,-131.98699 0,0 z M 29.565395,737.52371 c 15.898189,2.05638 30.574187,2.69173 43.853395,0.79054 12.84756,-1.83329 56.01711,-11.12582 55.75036,-68.44757 -0.25705,-54.31963 -33.799413,-66.73069 -59.649733,-68.25358 -13.487756,-0.79539 -26.509916,-0.291 -39.954022,2.04184 l 0,133.86877 0,0 z"
     id="path7"
     style="fill:#000000"
     inkscape:connector-curvature="0" /><path
     d="m 167.92523,638.0703 24.74938,-3.86543 c 0,5.06337 0,19.92366 0,21.7909 6.34861,-15.68479 26.09767,-28.28985 54.16927,-17.36773 l -6.5814,17.22708 c -25.69027,-12.18796 -47.58787,-1.49379 -47.58787,27.03372 l 0,58.86889 c 0,2.79843 0.60625,8.45834 2.28434,12.08611 l -25.70968,0 c 2.59959,-3.20098 3.79753,-9.28768 3.79753,-12.08611 l 0,-84.91806 c 0,-6.15946 -1.25129,-15.69449 -5.12157,-18.76937 l 0,0 z"
     id="path9"
     style="fill:#000000"
     inkscape:connector-curvature="0" /><path
     d="m 950.35575,649.87997 c 0,1.60533 0,70.07231 0,75.19387 0,23.59509 16.26678,29.90974 28.3238,29.90974 5.10216,0.2522 12.31406,-0.94089 17.35803,-2.06123 l 3.10883,-14.5693 c -5.88301,2.24068 -12.71662,2.77418 -16.80999,2.77418 -7.55624,0 -13.02216,-5.01486 -13.02216,-12.85726 0,-7.04215 -0.17945,-76.05717 0,-78.26876 l -0.0824,0 c 1.0088,0 16.67904,-0.0533 18.26013,0 5.14581,0.1843 9.09368,0.49955 12.48866,1.86239 L 1000,638.14305 c 0,0 -30.10859,-0.0388 -30.69059,-0.0388 l 0.12125,-35.19136 -22.81424,6.30496 c 3.15248,2.93908 4.17097,11.55262 4.17097,17.22708 0,0 -0.0145,10.51472 -0.0145,11.78542 -1.02819,0 -12.60021,0.0534 -14.5208,0.0534 l 0,11.59627 c 2.02729,-0.005 14.10371,0 14.10371,0 l 0,0 z"
     id="path11"
     style="fill:#000000"
     inkscape:connector-curvature="0" /><path
     d="m 851.77533,729.39031 c 9.80663,7.00335 25.19073,13.22101 36.4766,13.22101 15.65569,0 26.85911,-7.61445 26.85911,-21.9461 0,-26.46141 -60.32873,-22.08189 -60.32873,-55.65336 0,-22.69784 20.29711,-31.23378 39.64362,-31.23378 6.21281,0 20.40381,1.34829 29.43445,4.84026 l -0.0776,15.5005 c -8.01214,-6.84816 -20.24861,-8.50685 -28.30925,-8.50685 -12.80391,0 -22.40685,6.34861 -22.40685,18.80332 0,18.28923 60.27538,17.23193 60.27538,54.76097 0,24.26923 -21.0343,35.58906 -44.17349,35.58906 -11.28102,0 -23.03249,-2.00304 -32.82457,-4.80147 l -4.56867,-20.57356 0,0 z"
     id="path13"
     style="fill:#000000"
     inkscape:connector-curvature="0" /><path
     d="m 487.63501,650.11761 c 0,-1.37254 0.0533,-13.6672 0.0533,-15.24344 l -25.05493,3.87512 c 3.01668,3.16218 5.33497,13.03671 5.33497,20.08856 l 0,82.10508 c 0,2.79843 -1.19794,9.59324 -3.79753,12.79421 l 27.31986,0 c -2.59958,-3.20097 -3.79752,-9.99578 -3.79752,-12.79421 l 0,-61.77887 c 0,-22.60084 13.98245,-30.51114 27.89701,-30.51114 12.59536,0 23.97823,5.45137 23.97823,30.51114 l 0,61.77887 c 0,2.79843 -1.20279,9.59324 -3.79752,12.79421 l 26.49536,0 c -2.59958,-3.20097 -3.79752,-9.99578 -3.79752,-12.79421 l 0,-61.77887 c 0,-25.05977 15.48594,-30.51114 28.09585,-30.51114 12.59052,0 25.76787,7.90545 25.76787,30.51114 l 0,61.77887 c 0,2.79843 -1.19794,9.59324 -3.79752,12.79421 l 25.50597,0 c -2.59958,-3.20097 -3.79752,-9.99578 -3.79752,-12.79421 l 0,-73.50609 c 0,-12.52746 -12.77481,-32.59662 -42.6312,-32.59662 -17.36288,0 -27.38776,7.72115 -35.00221,14.37045 -6.47471,-7.55625 -17.01853,-14.6469 -33.95461,-14.6469 -16.51414,0 -26.25772,9.67083 -31.02039,15.55384 l 0,0 z"
     id="path15"
     style="fill:#000000"
     inkscape:connector-curvature="0" /><path
     d="m 428.55272,688.63119 c -3.57442,3.36103 -11.06277,5.97516 -18.79362,6.98881 -20.30681,2.66263 -37.89763,6.0382 -37.89763,25.82122 0,11.73207 12.78451,20.97125 22.92094,20.97125 26.83971,0 33.77516,-19.36106 33.77516,-34.61906 l 0,-19.16221 -0.005,0 z m -63.39876,-48.41236 c 10.24313,-4.10792 26.77667,-5.98971 37.13619,-5.98971 26.47112,0 44.0571,13.22586 44.0571,43.931 l 0,50.92949 c 0,9.43804 0.14065,18.36683 3.50652,24.64268 l -21.28165,0 -0.76144,-13.3956 c -8.06065,10.39832 -17.68298,15.05429 -34.02737,15.05429 -32.23772,0 -39.27987,-22.02855 -39.27987,-32.62087 0,-37.77639 35.95765,-38.22259 51.56969,-40.44387 8.63779,-1.22704 19.75876,-3.66657 21.42715,-11.76602 2.75963,-13.40046 -6.8239,-23.44474 -26.39352,-23.44474 -14.36075,0 -26.12677,4.36497 -35.9528,10.24798 l 0,-17.14463 0,0 z m 457.36637,48.41236 c -3.57442,3.36103 -11.06762,5.97516 -18.79847,6.98881 -20.30195,2.66263 -37.89763,6.0382 -37.89763,25.82122 0,11.73207 12.78451,20.97125 22.92094,20.97125 26.83971,0 33.77516,-19.36106 33.77516,-34.61906 l 0,-19.16222 0,0 z m -63.39876,-48.41236 c 10.24313,-4.10792 26.77667,-5.98971 37.1362,-5.98971 26.47111,0 44.05709,13.22586 44.05709,43.931 l 0,50.92949 c 0,9.43804 -2.05639,18.17768 3.50168,24.64268 l -21.28166,0 -0.76144,-13.3956 c -8.06065,10.39832 -17.68298,15.05429 -34.02251,15.05429 -32.23288,0 -39.27988,-22.02855 -39.27988,-32.62087 0,-37.77639 35.95765,-38.22259 51.56969,-40.44387 8.64264,-1.22704 19.76361,-3.66657 21.42715,-11.76602 2.75478,-13.40046 -6.8239,-23.44474 -26.39352,-23.44474 -14.36075,0 -26.12676,4.36497 -35.9528,10.24798 l 0,-17.14463 0,0 z"
     id="path17"
     style="fill:#000000"
     inkscape:connector-curvature="0" /><path
     d="m 736.47223,655.84057 c -7.98789,-4.66081 -20.58811,-8.36134 -29.37624,-8.36134 -30.85064,0 -44.99314,18.97792 -44.99314,46.30748 0,27.07736 13.81755,47.80612 43.99889,47.80612 10.34498,0 24.42928,-4.64142 35.35626,-11.35862 l -4.44742,19.91881 c -11.12097,3.30767 -20.49596,4.88391 -32.90702,4.88391 -42.41296,0 -62.28812,-30.07464 -62.28812,-61.37147 0,-34.59966 26.66511,-58.92224 62.74886,-58.92224 15.77209,0 27.29076,3.87027 31.94188,5.18946 l -0.034,15.90789 0,0 z"
     id="path19"
     style="fill:#000000"
     inkscape:connector-curvature="0" /><path
     d="m 261.71873,695.23685 c 0.0145,-2.86148 0.39285,-5.58716 0.7178,-8.22554 l 82.05658,0 c 0,-28.21226 -14.10371,-52.41359 -47.52967,-52.41359 -34.69181,0 -55.28477,27.13071 -55.28477,61.73522 0,31.29683 22.93064,59.25204 62.20082,59.25204 12.41591,0 22.79969,-3.06033 34.00311,-6.9791 l 3.94302,-20.00611 c -9.58353,7.89089 -25.07917,12.56141 -39.05677,12.56141 -25.13738,-0.005 -41.16652,-18.19707 -41.05012,-45.92433 l 0,0 z m 3.31253,-20.73846 c 2.66263,-13.73025 15.35984,-27.70785 30.55964,-27.70785 23.22648,0 29.94854,18.12432 29.94854,27.7127 -0.005,-0.005 -60.50818,0.034 -60.50818,-0.005 l 0,0 z"
     id="path21"
     style="fill:#000000"
     inkscape:connector-curvature="0" /><path
     d="m 591.02659,7.414628 c 22.80454,3.42408 46.09408,11.38772 58.2384,15.10279 24.46808,7.47865 64.1893,30.72454 78.2154,41.87461 6.63476,5.27192 20.58811,19.07977 25.99097,26.02977 5.26222,6.77056 15.3162,21.436852 21.7327,30.472342 10.20918,14.91365 22.23225,37.12649 32.43173,57.5691 11.39257,22.83849 12.17341,29.45385 15.61689,48.54816 l 7.532,33.65877 c 0.70809,5.81996 1.29494,27.16951 -11.23738,30.16194 -12.52746,2.99243 -24.10918,-2.78873 -29.57024,-11.23737 -7.55625,-11.69327 -6.51351,-28.28986 -15.05915,-47.28717 -6.66385,-15.355 -9.57868,-37.66969 -20.21951,-53.71823 l -8.34679,-14.1134 c -14.76814,-22.73664 -30.16194,-40.78337 -39.34292,-52.55424 -8.0849,-9.88908 -23.18284,-23.333182 -37.49509,-32.897322 -13.23556,-8.02669 -34.63361,-17.17858 -50.06621,-21.89275 -4.91786,-1.60048 -25.96671,-7.78904 -39.04707,-9.53018 -17.75088,-1.99334 -29.4296,-4.80147 -46.29778,-5.98971 -20.82576,-1.46954 -30.81669,-3.32222 -57.831,-0.1649 -10.23343,2.77418 -26.44687,3.87513 -41.04041,9.45744 -11.78542,4.80631 -28.17831,12.57111 -44.23655,22.00429 -17.28043,9.47684 -43.51389,28.857302 -60.91072,45.405392 -17.53263,18.73542 -26.30137,28.7894 -38.39234,52.53968 -5.35436,11.75147 -15.70904,29.92915 -19.88486,42.76216 -2.85178,13.02701 -8.29344,37.32534 -7.3768,49.12531 0.41225,21.141 -1.43559,25.49627 0.15035,42.7767 0.0582,15.55869 5.16522,26.34501 7.2895,39.07133 1.81874,8.79299 10.25283,39.21682 15.47139,46.27837 23.72119,51.10895 55.56122,73.2442 91.04357,89.21028 10.00063,5.09247 41.29746,13.46836 50.35235,15.86909 15.43744,2.78389 35.75395,4.64142 55.30902,5.01972 20.57355,0.40255 48.93131,-2.38618 66.13899,-8.72024 18.62387,-6.84815 40.15772,-16.58203 39.91037,-16.31044 8.64264,-4.76266 21.8297,-12.53716 25.93762,-15.95639 7.93939,-5.08761 12.72146,-7.0567 17.42593,-11.95516 6.7851,-5.93636 10.89302,-9.35559 16.03399,-16.71299 2.86148,-4.14672 7.40589,-10.49532 11.83391,-16.10673 4.76267,-7.8036 7.49805,-16.02914 12.14917,-26.20437 5.56291,-15.04945 4.69962,-14.3268 5.75691,-30.31229 0.99909,-4.63172 -0.1067,-20.20011 -0.94574,-22.84334 -2.50744,-14.3656 -1.61989,-27.03856 -4.90817,-40.98707 -4.44257,-18.87122 -8.13339,-32.99432 -13.803,-51.09924 -5.33012,-20.38441 -20.98581,-39.27018 -32.73728,-52.75794 -7.2798,-8.36134 -29.86609,-28.1104 -61.20172,-40.44387 -8.82209,-2.96817 -23.26529,-6.33405 -32.43658,-8.00729 -19.57931,-2.04669 -22.76574,-0.73234 -41.51086,0.6402 -6.45045,1.12519 -21.42715,4.18552 -26.93186,6.12065 -16.10189,5.65506 -22.0237,9.24889 -38.48448,19.33197 -7.66295,4.44742 -13.43926,7.85209 -21.27195,15.19494 -6.25161,5.78601 -10.71843,15.62175 -15.7818,21.38835 -6.93545,9.43804 -14.65659,22.02855 -19.83636,35.60846 -5.61626,13.50715 -7.4253,32.52387 -6.5717,44.76034 0,9.32648 2.53653,26.39836 3.54532,30.13284 1.00395,3.73932 3.52593,15.33074 4.07398,17.65872 0.54804,2.32314 6.57655,14.5887 7.40589,16.36379 3.39983,7.23615 9.90849,17.63448 20.87426,28.25105 8.08974,8.83664 23.73088,17.50838 35.4387,20.86941 10.50018,5.76176 28.20741,6.74145 38.00434,6.76085 4.82087,-0.291 17.13493,-1.04759 23.56113,-2.58988 13.03186,-3.12823 15.43745,-3.21068 28.867,-9.04519 12.05217,-5.58716 20.22921,-7.59989 28.62451,-13.803 0,0 11.52352,-9.03064 16.76148,-15.63629 2.76448,-3.48713 7.5029,-20.10311 6.659,-30.39474 -0.39284,-14.08915 1.65869,-22.0819 -1.21734,-33.67332 -2.87603,-11.59142 -7.78419,-25.02582 -13.10461,-33.30472 -5.38831,-8.38559 -16.97488,-16.55778 -30.16194,-23.06159 -7.38165,-3.64717 -24.87548,-7.0276 -32.29592,-7.90544 -14.09886,-1.67324 -25.88912,4.72387 -33.04767,12.04247 -6.20796,7.0955 -18.47838,21.83454 -13.58961,37.07314 4.42317,13.78845 9.76298,28.479 30.44324,27.38776 14.191,2.95363 30.60814,-1.33374 36.07405,1.18339 8.11399,4.60747 11.23252,14.7827 8.28374,21.8782 -2.05639,13.68175 -15.16099,15.32104 -29.1483,16.36378 -12.51291,2.09519 -44.29474,-4.03032 -51.27869,-9.26343 -4.68507,-2.78388 -11.85817,-9.47199 -16.91183,-13.9873 -3.63263,-3.24948 -7.7454,-10.49533 -10.55353,-15.69935 -3.44833,-6.39225 -5.18946,-11.09672 -6.07701,-15.26284 -1.05244,-4.94696 -3.22038,-14.38985 -2.40073,-23.83273 0.5529,-6.36801 2.26008,-9.07914 3.95757,-18.39108 3.38043,-10.55837 7.5805,-18.59477 14.3365,-27.7515 8.80269,-8.93364 19.98186,-19.56962 30.89429,-24.51173 9.62233,-5.08277 26.48081,-6.95485 41.73396,-6.06246 12.37226,1.18339 27.00946,2.69173 36.68514,5.93636 16.56264,5.91696 21.2962,7.0955 34.89066,15.67024 11.48957,7.11005 23.04704,20.19041 29.49749,31.02523 13.72056,28.07646 21.59205,59.31024 15.86909,101.3546 -0.47044,7.1052 -2.68203,14.0455 -7.11005,23.44959 -4.08852,8.68144 -11.26162,19.23981 -22.02369,27.18891 -4.33587,4.01092 -11.16948,8.94819 -16.73239,11.83877 -7.89574,4.79176 -13.20646,7.28464 -21.4514,11.42652 -7.23615,3.39982 -15.67024,7.2895 -26.66996,10.34497 -11.92122,4.71417 -21.06826,4.90817 -36.0595,7.144 -14.75845,3.70053 -55.13442,1.0573 -79.1854,-9.54958 -16.41714,-6.9015 -34.83731,-19.07007 -48.83916,-33.90126 -7.77935,-8.1528 -15.38895,-22.94519 -17.62478,-25.97157 -11.13552,-21.40775 -13.31801,-41.54481 -15.10279,-45.77399 -2.42499,-5.74721 -3.63263,-18.63357 -5.25737,-27.4508 -1.83329,-9.88424 -0.69839,-51.3369 9.28284,-77.94381 5.62596,-10.59233 8.91909,-20.03521 12.72631,-24.99673 6.8433,-9.73388 10.15098,-15.81574 15.97094,-22.71724 8.77359,-10.64083 15.16099,-19.32227 23.70663,-25.44292 21.77635,-17.70723 39.96858,-27.04827 64.57245,-38.73669 30.57419,-12.449862 39.75518,-9.87453 68.69008,-9.41378 13.01731,0.11155 31.96128,4.20492 41.27321,5.90241 17.29498,2.30373 27.20346,6.46985 38.90158,9.73388 12.50806,3.49198 19.73936,9.06459 30.00189,15.2677 8.44864,5.45621 18.39107,12.93001 24.95793,18.99731 16.80028,12.31892 24.90457,25.26833 35.20105,41.17137 1.86724,2.66748 14.09401,28.72635 16.04369,35.9819 0.9021,3.63262 3.67143,14.0649 5.44651,20.16131 2.28434,9.67083 3.39013,18.23587 5.93636,29.14829 2.27949,11.24223 6.15946,32.47053 7.8424,52.31174 2.82753,17.01853 -1.70234,51.75884 -4.37467,62.42392 -5.95091,19.88486 -16.35894,44.15409 -36.91309,67.52608 -8.72994,10.34983 -18.01278,18.37167 -28.73606,27.07736 -8.20129,6.8433 -15.23859,10.82512 -27.9067,18.39107 -17.20768,10.26738 -30.30259,16.82453 -54.42147,26.25287 -9.82118,3.15248 -22.19345,7.2992 -35.53086,10.05883 -25.83577,2.38618 -52.38448,4.67537 -81.36303,1.23189 -28.9834,-3.44833 -58.0153,-11.61567 -75.16478,-16.88273 -9.46228,-3.55018 -27.79515,-11.23737 -35.48235,-15.3744 -5.00032,-2.54138 -21.76665,-14.0067 -24.61358,-16.76633 -11.48957,-7.11005 -37.20409,-31.29198 -53.80553,-53.83462 -3.63747,-6.96456 -16.71783,-27.86306 -19.55506,-37.0198 -7.5417,-15.48594 -12.79906,-34.21651 -15.88849,-42.21895 -3.25918,-18.67722 -8.76389,-30.70514 -10.91242,-49.45511 0.24734,-4.41347 -0.88755,-14.79725 -1.88664,-20.54446 1.45984,-12.83301 -0.48985,-24.92882 2.05638,-38.89673 2.23584,-11.79026 5.19917,-16.71298 5.90241,-27.36836 0.6887,-4.55896 6.55716,-18.26982 8.11885,-24.37108 4.73356,-10.04913 5.91211,-18.32802 12.09096,-29.55569 8.90454,-17.49868 18.21163,-37.63089 32.51418,-55.21687 4.08367,-5.45136 15.66539,-18.531722 19.61326,-23.066442 9.33134,-9.32648 14.80695,-10.80087 25.38957,-20.16131 1.10095,-0.69354 8.08975,-8.66204 15.40835,-11.40227 12.12976,-9.37013 22.61054,-12.80876 34.15346,-21.33015 23.13434,-11.52352 31.56843,-15.41319 54.53302,-24.96763 13.26951,-4.73356 31.77698,-7.35255 38.44083,-9.93758 12.67782,-0.78569 25.54478,-4.83055997 38.88218,-4.02546997 14.97185,-0.14065 30.06009,0.92633997 45.10469,2.29402997 10.18008,0.62565 23.41564,1.12035 41.37021,5.01487 l 0,0 z"
     id="path23"
     style="fill:#cf3311;fill-opacity:1"
     inkscape:connector-curvature="0" /></svg>